<?xml version="1.0" standalone="no"?><!DOCTYPE svg PUBLIC "-//W3C//DTD SVG 1.1//EN" "http://www.w3.org/Graphics/SVG/1.1/DTD/svg11.dtd"><svg t="1610750023123" class="icon" viewBox="0 0 1024 1024" version="1.1" xmlns="http://www.w3.org/2000/svg" p-id="3945" width="200" height="200" xmlns:xlink="http://www.w3.org/1999/xlink"><defs><style type="text/css"></style></defs><path d="M223.7 435.7a281.2 234.4 0 1 0 562.4 0 281.2 234.4 0 1 0-562.4 0Z" fill="#CE302F" p-id="3946"></path><path d="M504.9 675.3c-76.3 0-148.1-24.8-202.1-69.9-54.3-45.3-84.2-105.5-84.2-169.7s29.9-124.4 84.2-169.7c54-45 125.8-69.9 202.1-69.9C581.2 196.2 653 221 707 266c54.3 45.3 84.2 105.5 84.2 169.7S761.3 560.1 707 605.4c-54 45.1-125.8 69.9-202.1 69.9z m0-468.9c-152.2 0-276.1 102.9-276.1 229.3S352.7 665 504.9 665C657.1 665 781 562.1 781 435.7S657.2 206.4 504.9 206.4z" fill="#333333" p-id="3947"></path><path d="M300.6 435.7a204.3 234.4 0 1 0 408.6 0 204.3 234.4 0 1 0-408.6 0Z" fill="#CE302F" p-id="3948"></path><path d="M504.9 675.3c-56.1 0-108.7-25-148.3-70.4-39.4-45.2-61.1-105.3-61.1-169.1s21.7-123.9 61.1-169.1c39.6-45.4 92.2-70.4 148.3-70.4s108.7 25 148.3 70.4c39.4 45.2 61.1 105.3 61.1 169.1s-21.7 123.9-61.1 169.1c-39.6 45.4-92.2 70.4-148.3 70.4z m0-468.9c-109.8 0-199.1 102.9-199.1 229.3S395.1 665 504.9 665 704 562.1 704 435.7s-89.3-229.3-199.1-229.3z" fill="#333333" p-id="3949"></path><path d="M492.4 180.4S448.8 69.7 504.2 69.3c55.4-0.4 17.8 96.8 8.6 111.1-9.2 14.3-20.4 0-20.4 0z" fill="#FFFFFF" p-id="3950"></path><path d="M503.4 191.9c-8.3 0-14.4-7.4-15.1-8.3l-0.5-0.6-0.3-0.7c-1.2-3.1-29.4-75.7-9.4-105.3 5.7-8.4 14.4-12.7 25.9-12.8h0.3c16.9 0 25.1 8.5 29.1 15.6 8.7 15.9 5.1 40.7 0.5 58.7-5.2 20.5-13.2 38.8-17 44.6-4.4 6.9-9.5 8.5-13 8.7-0.1 0.1-0.3 0.1-0.5 0.1z m-6.6-14.1c1.5 1.6 4.4 4 6.8 3.9 2-0.1 3.8-2.2 4.9-4 6.9-10.8 29.5-68.5 16.1-92.9-3.8-7-10.5-10.3-20.4-10.3-8.1 0.1-13.8 2.8-17.5 8.3-14 20.5 2.3 74.7 10.1 95z" fill="#333333" p-id="3951"></path><path d="M424.2 435.7a80.7 234.4 0 1 0 161.4 0 80.7 234.4 0 1 0-161.4 0Z" fill="#CE302F" p-id="3952"></path><path d="M504.9 675.3c-23.9 0-45.9-25.6-61.9-72.1-15.4-44.8-23.9-104.3-23.9-167.4s8.5-122.6 23.9-167.4c16-46.5 38-72.1 61.9-72.1s45.9 25.6 61.9 72.1c15.4 44.8 23.9 104.3 23.9 167.4 0 63.2-8.5 122.6-23.9 167.4-16 46.5-38 72.1-61.9 72.1z m0-468.9c-18.9 0-38 23.8-52.2 65.2-15.1 43.8-23.4 102-23.4 164.1s8.3 120.4 23.4 164.1C467 641.3 486 665 504.9 665c18.9 0 38-23.8 52.2-65.2 15.1-43.8 23.4-102 23.4-164.1s-8.3-120.4-23.4-164.1c-14.2-41.5-33.3-65.2-52.2-65.2z" fill="#333333" p-id="3953"></path><path d="M603.5 217.1H406.3c-2.8 0-5.1-2.3-5.1-5.1v-43.3c0-2.8 2.3-5.1 5.1-5.1h197.2c2.8 0 5.1 2.3 5.1 5.1V212c0 2.9-2.2 5.1-5.1 5.1z" fill="#F8B739" p-id="3954"></path><path d="M603.5 222.2H406.3c-5.6 0-10.2-4.6-10.2-10.2v-43.3c0-5.6 4.6-10.2 10.2-10.2h197.2c5.6 0 10.2 4.6 10.2 10.2V212c0 5.7-4.5 10.2-10.2 10.2z m-197.2-53.5V212h197.2v-43.3H406.3z" fill="#333333" p-id="3955"></path><path d="M603.5 706.8H406.3c-2.8 0-5.1-2.3-5.1-5.1v-43.3c0-2.8 2.3-5.1 5.1-5.1h197.2c2.8 0 5.1 2.3 5.1 5.1v43.3c0 2.8-2.2 5.1-5.1 5.1z" fill="#F8B739" p-id="3956"></path><path d="M603.5 711.9H406.3c-5.6 0-10.2-4.6-10.2-10.2v-43.3c0-5.6 4.6-10.2 10.2-10.2h197.2c5.6 0 10.2 4.6 10.2 10.2v43.3c0 5.6-4.5 10.2-10.2 10.2z m-197.2-53.5v43.3h197.2v-43.3H406.3z" fill="#333333" p-id="3957"></path><path d="M531.8 802.2H478v-34.4c0-14.9 12-26.9 26.9-26.9 14.9 0 26.9 12 26.9 26.9v34.4z" fill="#F8B739" p-id="3958"></path><path d="M536.9 807.3h-64v-39.5c0-17.6 14.4-32 32-32s32 14.4 32 32v39.5z m-53.8-10.2h43.6v-29.3c0-12-9.8-21.8-21.8-21.8s-21.8 9.8-21.8 21.8v29.3z" fill="#333333" p-id="3959"></path><path d="M570.6 953.7s-22.2 13.9-69.1 14-62.3-14-62.3-14L478 802.2h53.8l38.8 151.5z" fill="#F8B739" p-id="3960"></path><path d="M501.1 972.8c-48 0-64.7-14.7-65.4-15.3l-2.3-2.1L474 797.1h61.7L576.4 956l-3.2 2c-1 0.6-24 14.7-71.8 14.7 0 0.1-0.1 0.1-0.3 0.1zM445 951.6c5.7 3.4 22.2 11 56.1 11h0.4c35-0.1 55.7-8 63.2-11.5l-36.8-143.7H482l-37 144.2zM499.648 740.96l0.34-32.796 10.199 0.105-0.34 32.797z" fill="#333333" p-id="3961"></path><path d="M478 970.3h-0.7c-2.8-0.4-4.8-2.9-4.4-5.7l16.8-126.8c0.4-2.8 2.9-4.8 5.7-4.4 2.8 0.4 4.8 2.9 4.4 5.7L483 965.9c-0.2 2.5-2.4 4.4-5 4.4zM519.3 934.7c-2.7 0-4.9-2.1-5.1-4.8l-4.1-65.4c-0.2-2.8 2-5.2 4.8-5.4 2.8-0.2 5.2 2 5.4 4.8l4.1 65.4c0.2 2.8-2 5.2-4.8 5.4h-0.3z" fill="#333333" p-id="3962"></path><path d="M477 404.2a31.1 95.3 0 1 0 62.2 0 31.1 95.3 0 1 0-62.2 0Z" fill="#CE3A3A" opacity=".8" p-id="3963"></path><path d="M359.1 334.2a11.2 11.2 0 1 0 22.4 0 11.2 11.2 0 1 0-22.4 0Z" fill="#CE3A3A" opacity=".8" p-id="3964"></path><path d="M324.8 419.7a24 24.2 0 1 0 48 0 24 24.2 0 1 0-48 0Z" fill="#CE3A3A" opacity=".8" p-id="3965"></path><path d="M378.5 496.8a11.2 11.2 0 1 0 22.4 0 11.2 11.2 0 1 0-22.4 0Z" fill="#CE3A3A" opacity=".8" p-id="3966"></path><path d="M664.3 470c-27.6 100.1-24 50.1-24 41.7s18.4-98.3-11.2-177.5c-29.6-79.2 62.8 35.7 35.2 135.8z" fill="#CE3A3A" p-id="3967"></path><path d="M410.3 658.9c-2.2 0-4 1.8-4 4v34.2c0 2.2 1.8 4 4 4h95.6L474 658.9h-63.7zM410.3 169.3c-2.2 0-4 1.8-4 4v34.2c0 2.2 1.8 4 4 4h95.6L474 169.3h-63.7z" fill="#F4B037" p-id="3968"></path></svg>