<?xml version="1.0" standalone="no"?><!DOCTYPE svg PUBLIC "-//W3C//DTD SVG 1.1//EN" "http://www.w3.org/Graphics/SVG/1.1/DTD/svg11.dtd"><svg t="1607106257426" class="icon" viewBox="0 0 1024 1024" version="1.1" xmlns="http://www.w3.org/2000/svg" p-id="4176" xmlns:xlink="http://www.w3.org/1999/xlink" width="200" height="200"><defs><style type="text/css"></style></defs><path d="M275.01056 480.11776H116.58752a29.84448 29.84448 0 0 1 0-59.68384h158.42304a29.84448 29.84448 0 0 1 0 59.68384z m369.89952 26.86976a29.8752 29.8752 0 0 1-7.87456-58.60352l152.65792-42.75712a29.52192 29.52192 0 0 1 36.352 20.78208 29.88032 29.88032 0 0 1-20.5824 36.73088L652.8 505.89696a29.22496 29.22496 0 0 1-7.88992 1.09056z m-114.60096-205.15328H371.88608a29.84448 29.84448 0 0 1 0-59.68384h158.42304a29.84448 29.84448 0 0 1 0 59.68384z" fill="#d81e06" p-id="4177"></path><path d="M267.96544 918.31808H129.408A42.43456 42.43456 0 0 1 87.04 875.91424V318.72a42.43456 42.43456 0 0 1 42.37312-42.40384h138.55232a42.43456 42.43456 0 0 1 42.37312 42.40384v557.19424a42.43456 42.43456 0 0 1-42.37312 42.40384zM147.70688 857.6h101.9648V337.02912H147.70688V857.6z m372.08064 60.71296H381.23008a42.43456 42.43456 0 0 1-42.37312-42.40384V139.68384A42.43456 42.43456 0 0 1 381.23008 97.28h138.55232a42.43456 42.43456 0 0 1 42.37312 42.40384v736.256a42.43456 42.43456 0 0 1-42.37312 42.37824zM399.52384 857.6h101.9648V157.99296H399.52384V857.6z m366.69952 69.12a42.45504 42.45504 0 0 1-40.8576-31.06816l-148.7872-536.93952a42.41408 42.41408 0 0 1 29.52704-52.1984l133.504-37.04832a42.35264 42.35264 0 0 1 52.15232 29.5424L940.544 835.93216a42.496 42.496 0 0 1-29.50144 52.18816l-133.5296 37.06368a42.17344 42.17344 0 0 1-11.2896 1.536zM639.92832 360.13568l139.008 501.64736 98.26304-27.27424-139.008-501.64736z m263.00416 498.73408zM733.29664 315.21792a0.16896 0.16896 0 0 0 0 0.03072z" fill="#d81e06" p-id="4178"></path></svg>