<?xml version="1.0" standalone="no"?><!DOCTYPE svg PUBLIC "-//W3C//DTD SVG 1.1//EN" "http://www.w3.org/Graphics/SVG/1.1/DTD/svg11.dtd"><svg t="1607624444164" class="icon" viewBox="0 0 1024 1024" version="1.1" xmlns="http://www.w3.org/2000/svg" p-id="3216" width="32" height="32" xmlns:xlink="http://www.w3.org/1999/xlink"><defs><style type="text/css"></style></defs><path d="M963.999 128h-904c-33 0-60 27.295-60 60.655v646.69c0 33.36 27 60.655 60 60.655h904c33 0 60-27.295 60-60.655v-646.69c0-33.36-27-60.655-60-60.655z m0 60.655v18.073a29.729 29.729 0 0 0-4.569 2.139L511.999 467.191 64.568 208.867a29.962 29.962 0 0 0-4.569-2.139v-18.073h904z m-904 646.69V275.511l432.463 249.683c5.511 4.532 12.476 6.937 19.537 6.856 7.061 0.081 14.026-2.324 19.537-6.856l432.463-249.683v559.834h-904z" p-id="3217" fill="#707070"></path></svg>