<?xml version="1.0" standalone="no"?><!DOCTYPE svg PUBLIC "-//W3C//DTD SVG 1.1//EN" "http://www.w3.org/Graphics/SVG/1.1/DTD/svg11.dtd"><svg t="1608227763484" class="icon" viewBox="0 0 1024 1024" version="1.1" xmlns="http://www.w3.org/2000/svg" p-id="5077" xmlns:xlink="http://www.w3.org/1999/xlink" width="32" height="32"><defs><style type="text/css"></style></defs><path d="M352.573 504.89c3.275 8.799-1.202 18.587-10.001 21.862-8.8 3.276-18.588-1.202-21.863-10.001a202.76 202.76 0 0 1-5.496-17.03c-4.77-17.4-7.213-35.45-7.213-53.798C308 333.277 399.8 242 513 242c113.196 0 205 91.278 205 203.923s-91.804 203.923-205 203.923c-57.264 0-110.796-23.497-149.289-64.166-3.72-3.932-7.275-8-10.652-12.19-5.892-7.31-4.743-18.012 2.567-23.904 7.31-5.892 18.013-4.743 23.905 2.567a170.448 170.448 0 0 0 8.877 10.16c32.127 33.943 76.759 53.533 124.592 53.533 94.462 0 171-76.1 171-169.923C684 352.1 607.462 276 513 276c-94.465 0-171 76.098-171 169.923 0 15.303 2.034 30.33 6 44.8a168.71 168.71 0 0 0 4.573 14.167z" p-id="5078" fill="#d81e06"></path><path d="M614.409 650.609c0-9.39 7.611-17 17-17s17 7.61 17 17V752.95c0 27.526-29.651 44.857-53.687 31.44l-80.685-45.058a2.133 2.133 0 0 0-2.07-0.002l-80.691 45.06c-24.034 13.417-53.685-3.914-53.685-31.44V591.308c0-9.39 7.611-17 17-17s17 7.61 17 17V752.95c0 1.535 1.711 2.535 3.11 1.755l80.693-45.062a36.137 36.137 0 0 1 35.216 0.002l80.687 45.058c1.4 0.782 3.112-0.218 3.112-1.753V650.609zM477.398 495.584l20.887-15.176a24.475 24.475 0 0 1 28.787-0.005l20.893 15.18-7.984-24.568a24.487 24.487 0 0 1 8.895-27.366l20.894-15.18h-25.827a24.478 24.478 0 0 1-23.281-16.914l-7.98-24.562-7.98 24.56a24.478 24.478 0 0 1-23.283 16.916h-25.827l20.89 15.178a24.48 24.48 0 0 1 8.897 27.373l-2.54 7.82-1.682 5.173-3.759 11.57z m44.338-136.457l-0.001 0.004 0.001-0.004z m-48.058 181.186c-19.187 13.934-44.998-4.822-37.669-27.374l4.117-12.67 8.695-26.763 1.683-5.174 0.403-1.24-39.003-28.337c-19.186-13.94-9.325-44.286 14.39-44.286h48.208l14.897-45.846c7.325-22.556 39.235-22.556 46.565-0.002l14.896 45.848h48.21c23.714 0 33.573 30.347 14.388 44.286l-39.002 28.336 14.9 45.851c7.323 22.551-18.486 41.305-37.674 27.37l-39-28.338-39.004 28.34z m-1.314-139.264l0.001-0.004v0.004z m-19.32 59.462l-0.001 0.005 0.001-0.005z" p-id="5079" fill="#d81e06"></path></svg>