<?xml version="1.0" standalone="no"?><!DOCTYPE svg PUBLIC "-//W3C//DTD SVG 1.1//EN" "http://www.w3.org/Graphics/SVG/1.1/DTD/svg11.dtd"><svg t="1607100717576" class="icon" viewBox="0 0 1024 1024" version="1.1" xmlns="http://www.w3.org/2000/svg" p-id="7229" xmlns:xlink="http://www.w3.org/1999/xlink" width="200" height="200"><defs><style type="text/css"></style></defs><path d="M80.45 279.41L512.8 499.38l432.35-219.97L512.8 67.03 80.45 279.41z m60.68 341.33l-91.02-45.51C19.77 560.06 4.6 537.31 4.6 506.97c0-30.34 15.17-53.1 45.51-68.26l91.02-45.51-91.02-45.51C12.18 332.51-2.99 287 12.18 249.07c7.58-15.17 22.76-30.34 30.34-30.34L474.88 6.35c22.76-7.58 45.51-7.58 68.27 0L975.5 218.73c37.92 15.17 53.09 60.68 30.34 98.6-7.58 15.17-22.75 30.34-30.34 30.34l-91.02 45.51 83.44 37.93c37.92 15.17 53.09 37.92 53.09 75.85 0 30.34-15.17 60.68-53.09 75.85l-83.44 37.93 83.44 37.93c37.92 15.17 53.09 37.92 53.09 75.85 0 30.34-15.17 60.68-53.09 75.85l-417.18 204.8c-7.59 7.58-22.76 7.58-37.93 7.58s-22.76 0-37.93-7.58L42.52 802.79C12.18 787.62 4.6 764.86 4.6 734.52c0-30.34 15.17-53.1 45.51-68.27l91.02-45.51z m83.44 45.51L80.45 734.52 512.8 954.49l432.35-212.38-144.12-68.27-250.3 121.36c-7.59 7.58-22.76 7.58-37.93 7.58s-22.76 0-37.93-7.58l-250.3-128.95zM801.03 438.7l-250.3 121.36c-22.76 7.59-45.51 7.59-68.27 0L224.57 438.7 80.45 506.97 512.8 726.93l432.35-219.97-144.12-68.26z m0 0" p-id="7230" fill="#d81e06"></path></svg>