<?xml version="1.0" standalone="no"?><!DOCTYPE svg PUBLIC "-//W3C//DTD SVG 1.1//EN" "http://www.w3.org/Graphics/SVG/1.1/DTD/svg11.dtd"><svg t="1606763568897" class="icon" viewBox="0 0 1024 1024" version="1.1" xmlns="http://www.w3.org/2000/svg" p-id="2553" xmlns:xlink="http://www.w3.org/1999/xlink" width="200" height="200"><defs><style type="text/css"></style></defs><path d="M921.313481 307.394424H887.238133v409.31348h-34.075347V239.141401s-238.732088 0-341.060458 76.746278C407.932048 239.346058 170.939542 239.141401 170.939542 239.141401v477.566503h-34.075347v-409.31348h-34.075347v409.31348s0 34.075347 34.075347 34.075348h272.909763c11.460777 2.353553 32.540422 5.01409 51.880484 18.623763 23.740182 16.679524 46.150095 15.553912 50.550215 15.451584 4.40012 0.102328 26.912361 1.22794 50.550215-15.451584 19.237734-13.507345 40.010393-16.270211 51.573498-18.623763H887.238133c34.075347 0 34.075347-34.075347 34.075348-34.075348v-409.31348z m-375.135805 68.150694c102.32837-68.253023 238.732088-68.253023 238.732087-68.253022V648.454882s-168.739482 18.521435-235.969221 53.620066c0-25.889078-2.762866-319.980813-2.762866-326.52983z m-68.253023 0c0 6.446687 0.61397 300.640751 0.61397 326.52983-67.229739-35.098631-239.346058-53.620066-239.346058-53.620066v-341.060458s136.403717 0 238.732088 68.150694z" fill="#dbdbdb" p-id="2554"></path></svg>