<?xml version="1.0" standalone="no"?><!DOCTYPE svg PUBLIC "-//W3C//DTD SVG 1.1//EN" "http://www.w3.org/Graphics/SVG/1.1/DTD/svg11.dtd"><svg t="1607100825732" class="icon" viewBox="0 0 1024 1024" version="1.1" xmlns="http://www.w3.org/2000/svg" p-id="8294" xmlns:xlink="http://www.w3.org/1999/xlink" width="200" height="200"><defs><style type="text/css"></style></defs><path d="M878.592 348.16c-34.816-18.432-55.296-57.344-55.296-98.304s20.48-79.872 55.296-98.304c6.144-4.096 10.24-10.24 10.24-18.432 0-20.48-16.384-34.816-34.816-34.816h-573.44c-79.872 0-145.408 67.584-145.408 151.552 0 55.296 28.672 104.448 71.68 131.072C163.84 407.552 135.168 456.704 135.168 512s28.672 104.448 71.68 131.072c-43.008 26.624-71.68 75.776-71.68 131.072 0 83.968 65.536 151.552 145.408 151.552h573.44c18.432 0 34.816-16.384 34.816-34.816 0-8.192-4.096-14.336-10.24-18.432-34.816-18.432-55.296-57.344-55.296-98.304s20.48-79.872 55.296-98.304c6.144-4.096 10.24-10.24 10.24-18.432 0-6.144-2.048-10.24-4.096-14.336 2.048-4.096 4.096-10.24 4.096-14.336 0-8.192-4.096-14.336-10.24-18.432-34.816-18.432-55.296-57.344-55.296-98.304s20.48-79.872 55.296-98.304c6.144-4.096 10.24-10.24 10.24-18.432 0-6.144-2.048-10.24-4.096-14.336 2.048-4.096 4.096-10.24 4.096-14.336 0-8.192-4.096-14.336-10.24-18.432z m-96.256-98.304c0 43.008 16.384 81.92 45.056 110.592H532.48V139.264h294.912c-28.672 28.672-45.056 67.584-45.056 110.592zM491.52 139.264v315.392l-32.768-34.816c-14.336-14.336-38.912-14.336-53.248 0l-32.768 34.816V139.264H491.52zM176.128 249.856c0-61.44 47.104-110.592 104.448-110.592h51.2v221.184h-51.2c-57.344 0-104.448-49.152-104.448-110.592z m606.208 524.288c0 43.008 16.384 81.92 45.056 110.592H280.576c-57.344 0-104.448-49.152-104.448-110.592s47.104-110.592 104.448-110.592h546.816c-28.672 28.672-45.056 67.584-45.056 110.592z m0-262.144c0 43.008 16.384 81.92 45.056 110.592H280.576c-57.344 0-104.448-49.152-104.448-110.592 0-61.44 47.104-110.592 104.448-110.592h51.2v83.968c0 12.288 8.192 22.528 18.432 26.624 10.24 4.096 22.528 2.048 30.72-8.192l51.2-55.296 51.2 55.296c6.144 6.144 12.288 10.24 20.48 10.24 4.096 0 6.144 0 10.24-2.048 10.24-4.096 18.432-14.336 18.432-26.624v-83.968h294.912C798.72 430.08 782.336 468.992 782.336 512z" p-id="8295" fill="#d81e06"></path></svg>