<?xml version="1.0" standalone="no"?><!DOCTYPE svg PUBLIC "-//W3C//DTD SVG 1.1//EN" "http://www.w3.org/Graphics/SVG/1.1/DTD/svg11.dtd"><svg t="1608229405980" class="icon" viewBox="0 0 1024 1024" version="1.1" xmlns="http://www.w3.org/2000/svg" p-id="5241" xmlns:xlink="http://www.w3.org/1999/xlink" width="32" height="32"><defs><style type="text/css"></style></defs><path d="M723.2 96c160.128 0 290.133333 128.426667 290.133333 286.976 0 74.368-48.213333 155.562667-141.568 245.333333l-337.28 333.141334a32 32 0 0 1-44.970666 0l-337.024-332.842667C58.88 538.496 10.666667 457.344 10.666667 382.976c0-158.592 130.005333-286.976 290.133333-286.976 79.573333 0 153.770667 31.957333 207.530667 86.442667l3.626666 3.797333 3.669334-3.84a289.706667 289.706667 0 0 1 2.901333-2.858667l3.712-3.882666a32.128 32.128 0 0 1 5.333333-4.693334 291.157333 291.157333 0 0 1 183.722667-74.709333z m0 64c-74.624 0-143.018667 35.84-185.173333 94.890667a31.872 31.872 0 0 1-10.368 9.386666L384.170667 419.925333a32 32 0 0 1-50.005334-39.68l2.944-3.669333 131.669334-142.933333A226.986667 226.986667 0 0 0 300.8 160c-125.013333 0-226.133333 99.925333-226.133333 222.976 0 53.12 39.850667 120.32 122.496 199.808L512 893.653333l325.632-321.408c71.850667-71.338667 108.373333-132.650667 111.530667-182.229333l0.213333-7.04c0-123.050667-101.12-222.976-226.133333-222.976z" p-id="5242" fill="#d81e06"></path></svg>