<?xml version="1.0" standalone="no"?><!DOCTYPE svg PUBLIC "-//W3C//DTD SVG 1.1//EN" "http://www.w3.org/Graphics/SVG/1.1/DTD/svg11.dtd"><svg t="1607100551661" class="icon" viewBox="0 0 1024 1024" version="1.1" xmlns="http://www.w3.org/2000/svg" p-id="6217" xmlns:xlink="http://www.w3.org/1999/xlink" width="200" height="200"><defs><style type="text/css"></style></defs><path d="M927.11936 596.64384l-135.9872-117.96992A203.42272 203.42272 0 0 0 651.91424 128a200.27392 200.27392 0 0 0-132.65408 49.85344q-5.31456-0.2816-10.69568-0.28672c-3.0208 0-6.02112 0.09728-9.0112 0.2304A200.27904 200.27904 0 0 0 366.96576 128a203.42784 203.42784 0 0 0-139.22304 350.6688l-135.98208 117.97504A28.58496 28.58496 0 0 0 81.92 618.24v199.68a28.4672 28.4672 0 0 0 28.40064 28.53376h109.0048v21.03296A28.4672 28.4672 0 0 0 247.72608 896h517.48352a28.4672 28.4672 0 0 0 28.3904-28.53376v-21.03296h114.94912a28.4672 28.4672 0 0 0 28.41088-28.53376v-199.68a28.58496 28.58496 0 0 0-9.84064-21.57568zM138.72128 789.36576V631.296L290.816 499.328a28.61056 28.61056 0 0 0-3.072-45.51168 146.01728 146.01728 0 0 1 135.7312-257.3312A203.66336 203.66336 0 0 0 368.41472 527.36l-139.07456 118.70208a28.59008 28.59008 0 0 0-10.01472 21.74464v121.55904H138.72128z m598.08256 49.56672H276.12672V681.0112l155.25888-132.5312a28.60544 28.60544 0 0 0-2.75456-45.568 145.50016 145.50016 0 1 1 159.1296 0.47104 28.61056 28.61056 0 0 0-3.072 45.51168l152.12032 131.97312v158.06464z m143.36-49.56672H793.6v-121.55904a28.5696 28.5696 0 0 0-9.84064-21.59104l-135.9872-117.97504a203.67872 203.67872 0 0 0-53.248-331.36128 146.0736 146.0736 0 0 1 136.59136 256.93696 28.61056 28.61056 0 0 0-3.072 45.51168l152.1152 131.968v158.06464z" fill="#d81e06" p-id="6218"></path><path d="M594.09408 720.896l-50.86208-116.6848 18.816-18.87232a8.55552 8.55552 0 0 0 0-12.07808l-20.83328-20.89472a8.50432 8.50432 0 0 0-6.02624-2.50368H483.67616a8.50432 8.50432 0 0 0-6.02624 2.50368l-20.8384 20.89472a8.55552 8.55552 0 0 0 0 12.07808l18.816 18.8672-50.8416 116.68992a28.50816 28.50816 0 0 0 5.9392 31.50848l58.6496 58.81344a28.31872 28.31872 0 0 0 40.12032 0l58.65472-58.81344a28.5184 28.5184 0 0 0 5.94432-31.50848zM509.44 750.8736l-24.90368-24.97536 24.90368-57.15456 24.90368 57.15456z" fill="#d81e06" p-id="6219"></path></svg>