<?xml version="1.0" standalone="no"?><!DOCTYPE svg PUBLIC "-//W3C//DTD SVG 1.1//EN" "http://www.w3.org/Graphics/SVG/1.1/DTD/svg11.dtd"><svg t="1606763475566" class="icon" viewBox="0 0 1024 1024" version="1.1" xmlns="http://www.w3.org/2000/svg" p-id="1422" xmlns:xlink="http://www.w3.org/1999/xlink" width="200" height="200"><defs><style type="text/css"></style></defs><path d="M868.8 726.742857a344.628571 344.628571 0 0 0-98.742857-69.028571C821.828571 615.771429 854.857143 551.771429 854.857143 480c0-126.628571-105.6-230.514286-232.228572-228.571429-124.685714 1.942857-225.142857 103.542857-225.142857 228.571429 0 71.771429 33.142857 135.771429 84.8 177.714286a343.942857 343.942857 0 0 0-98.742857 69.028571C321.142857 789.257143 285.714286 871.771429 283.428571 959.771429a9.142857 9.142857 0 0 0 9.142858 9.371428h64c4.914286 0 9.028571-3.885714 9.142857-8.8 2.171429-66.285714 29.028571-128.342857 76.228571-175.428571A258.994286 258.994286 0 0 1 626.285714 708.571429c69.6 0 135.085714 27.085714 184.342857 76.342857C857.714286 832 884.571429 894.057143 886.857143 960.342857c0.114286 4.914286 4.228571 8.8 9.142857 8.8h64a9.142857 9.142857 0 0 0 9.142857-9.371428c-2.285714-88-37.714286-170.514286-100.342857-233.028572zM626.285714 626.285714c-39.085714 0-75.885714-15.2-103.428571-42.857143a144.982857 144.982857 0 0 1-42.857143-104.914285c0.342857-37.485714 15.314286-73.714286 41.485714-100.571429 27.428571-28.114286 64.114286-43.771429 103.314286-44.228571 38.742857-0.342857 76.342857 14.742857 104 41.828571 28.342857 27.771429 43.885714 64.914286 43.885714 104.457143 0 39.085714-15.2 75.771429-42.857143 103.428571A145.485714 145.485714 0 0 1 626.285714 626.285714zM340 510.171429c-1.028571-9.942857-1.6-20-1.6-30.171429 0-18.171429 1.714286-35.885714 4.914286-53.142857 0.8-4.114286-1.371429-8.342857-5.142857-10.057143-15.542857-6.971429-29.828571-16.571429-42.171429-28.685714a145.76 145.76 0 0 1-44.228571-109.028572c1.028571-36.685714 15.771429-71.542857 41.485714-97.828571 28.228571-28.914286 66.171429-44.685714 106.514286-44.228572 36.457143 0.342857 71.657143 14.4 98.285714 39.314286 9.028571 8.457143 16.8 17.828571 23.314286 27.885714 2.285714 3.542857 6.742857 5.028571 10.628571 3.657143 20.114286-6.971429 41.371429-11.885714 63.2-14.171428 6.4-0.685714 10.057143-7.542857 7.2-13.257143-37.142857-73.485714-113.028571-124.228571-200.8-125.6-126.742857-1.942857-232.342857 101.942857-232.342857 228.457143 0 71.771429 33.028571 135.771429 84.8 177.714285-36.342857 16.8-69.828571 40-98.857143 69.028572-62.628571 62.514286-98.057143 145.028571-100.342857 233.142857a9.142857 9.142857 0 0 0 9.142857 9.371429h64.114286c4.914286 0 9.028571-3.885714 9.142857-8.8 2.171429-66.285714 29.028571-128.342857 76.228571-175.428572 33.6-33.6 74.742857-56.914286 119.657143-68.228571 4.457143-1.142857 7.428571-5.371429 6.857143-9.942857z" p-id="1423" fill="#dbdbdb"></path></svg>